<?xml version="1.0" standalone="no"?>
<!DOCTYPE svg PUBLIC "-//W3C//DTD SVG 20010904//EN"
 "http://www.w3.org/TR/2001/REC-SVG-20010904/DTD/svg10.dtd">
<svg version="1.0" xmlns="http://www.w3.org/2000/svg"
 width="1024.000000pt" height="1024.000000pt" viewBox="0 0 1024.000000 1024.000000"
 preserveAspectRatio="xMidYMid meet">

<g transform="translate(0.000000,1024.000000) scale(0.100000,-0.100000)"
fill="#000000" stroke="none">
<path d="M1260 5120 l0 -2270 3925 0 3925 0 0 2270 0 2270 -3925 0 -3925 0 0
-2270z m960 2211 c0 -21 3 -53 6 -70 l6 -31 -391 -2 -391 -3 -2 -2113 -3
-2112 394 0 394 0 -7 -46 c-3 -26 -6 -57 -6 -70 l0 -24 -475 0 -475 0 2 708 3
707 68 3 67 3 0 -635 c0 -474 3 -637 12 -642 8 -5 9 -2 4 12 -9 24 -9 3798 0
4032 5 126 4 172 -5 172 -8 0 -11 -92 -11 -340 l0 -341 -67 3 -68 3 -3 400
c-1 220 0 406 3 412 3 10 107 13 475 13 l470 0 0 -39z m880 7 l0 -33 -421 0
c-364 0 -422 -2 -430 -15 -6 -10 -8 0 -9 33 l0 47 430 0 430 0 0 -32z m6000
-2223 l0 -2255 -2995 0 -2995 0 0 70 0 70 1189 0 c941 0 1192 3 1198 13 4 6 9
408 11 892 1 484 3 884 5 889 2 5 13 6 25 2 l22 -7 2 -892 3 -892 1698 -3
1697 -2 0 1280 0 1280 -1327 2 c-1255 3 -1328 4 -1331 21 -3 16 27 17 532 17
l536 0 -2 813 -3 812 -900 0 -900 0 -3 -757 -2 -758 -25 0 -25 0 0 760 c0 418
-4 760 -8 760 -4 0 -8 -367 -8 -815 -1 -788 -1 -815 17 -816 11 -1 24 -3 29
-4 6 -1 15 -3 20 -4 6 0 10 -8 10 -16 0 -11 -12 -15 -44 -15 -40 0 -44 2 -49
28 -3 15 -3 309 0 655 l6 627 -106 0 -105 0 -7 -232 c-3 -128 -5 -343 -3 -478
l3 -245 98 0 97 0 0 -182 0 -183 60 0 60 0 1 48 c1 26 1 91 -1 145 l-2 97 171
0 171 0 -2 623 -3 622 -167 0 -167 0 -6 33 c-3 19 -3 47 0 63 l7 29 883 0 884
0 3 -211 c2 -116 1 -215 -2 -219 -3 -5 -22 -10 -43 -12 l-39 -3 -1 -145 c-2
-137 -3 -145 -22 -146 -11 -1 -42 -2 -68 -3 -38 -1 -50 -5 -54 -19 -4 -17 -27
-18 -360 -20 -195 -1 -359 -5 -364 -8 -15 -9 -11 -307 5 -329 12 -17 30 -18
365 -12 302 5 353 4 358 -9 4 -10 23 -14 74 -14 l69 0 0 -80 0 -80 40 0 40 0
0 -140 0 -140 -530 0 -530 0 0 -35 0 -35 1328 -2 1327 -3 0 -1195 c0 -657 -2
-1225 -3 -1262 l-4 -68 -934 0 -934 0 -2 168 -3 167 -442 3 -443 2 0 -170 0
-170 -305 0 -305 0 2 893 3 892 -49 3 c-32 2 -52 -1 -57 -10 -5 -7 -9 -410 -9
-895 l0 -883 -2000 0 -2000 0 0 2095 0 2095 2000 0 2000 0 0 -167 c0 -91 3
-163 7 -159 4 4 8 83 8 177 l1 169 -1183 0 -1183 0 0 63 c0 35 3 67 7 70 3 4
1351 7 2995 7 l2988 0 0 -2255z m-6040 2155 c0 -5 -5 -10 -11 -10 -8 0 -8 -5
1 -15 11 -13 -32 -15 -379 -15 -254 0 -391 4 -391 10 0 6 134 11 378 12 l377
3 -377 2 c-241 2 -378 7 -378 13 0 6 140 10 390 10 253 0 390 -4 390 -10z
m2848 -415 c1 -121 0 -230 -3 -243 -5 -22 -7 -22 -158 -20 l-152 3 0 233 c0
190 3 234 14 241 8 5 78 9 155 8 l141 -2 3 -220z m-448 -462 l0 -463 -90 0
-90 0 0 463 0 462 90 0 90 0 0 -462z m1843 -63 l2 -405 3 413 c1 227 6 411 10
408 5 -3 7 -175 5 -383 -1 -208 -3 -393 -3 -410 0 -26 -4 -33 -20 -33 -20 0
-20 7 -20 417 0 275 3 414 10 407 6 -6 11 -165 13 -414z m57 6 c0 -259 -4
-407 -10 -411 -7 -4 -10 133 -10 404 0 267 3 411 10 411 7 0 10 -141 10 -404z
m-1452 -118 l-3 -363 -162 -3 -163 -2 0 359 0 360 153 4 c83 1 158 4 165 5 10
2 12 -73 10 -360z m-4578 122 c0 -120 -4 -190 -10 -190 -6 0 -10 70 -10 190 0
120 4 190 10 190 6 0 10 -70 10 -190z m40 0 c0 -162 -2 -190 -15 -190 -13 0
-15 28 -15 190 0 162 2 190 15 190 13 0 15 -28 15 -190z m-73 -57 c-1 -73 -5
-133 -9 -133 -5 0 -7 84 -7 188 1 140 4 173 10 132 4 -30 7 -115 6 -187z m100
-40 c-1 -54 -3 -12 -3 92 0 105 2 149 3 98 2 -51 2 -136 0 -190z m5871 25 l-3
-193 -62 -3 -62 -3 -3 173 c-4 236 -10 218 68 218 l64 0 -2 -192z m-298 -8 l0
-160 -77 -1 c-43 0 -164 -3 -270 -5 -166 -4 -193 -2 -207 11 -13 13 -16 41
-16 150 0 73 3 140 6 149 5 14 40 16 285 16 l279 0 0 -160z m158 110 c2 -25 1
-96 -3 -158 l-7 -113 -67 3 -66 3 -3 158 -3 158 73 -3 73 -3 3 -45z m-5718
-445 l0 -204 -33 -6 c-18 -4 -49 -5 -68 -3 l-34 3 -3 195 c-1 107 0 200 2 207
4 9 27 13 71 13 l65 0 0 -205z m-80 -931 c0 -467 -3 -703 -10 -699 -7 4 -10
250 -10 706 0 459 3 699 10 699 7 0 10 -242 10 -706z m43 3 c2 -658 1 -697
-15 -697 -17 0 -18 40 -18 693 0 382 3 697 7 701 4 3 10 5 15 4 4 -2 9 -317
11 -701z m-74 36 c0 -362 -4 -676 -8 -698 -5 -23 -9 261 -10 658 -1 459 2 697
9 697 7 0 10 -225 9 -657z m98 -395 c-1 -194 -2 -36 -2 352 0 388 1 546 2 353
2 -194 2 -512 0 -705z m4093 -734 c0 -590 -3 -893 -10 -889 -6 4 -8 304 -6
868 5 961 4 917 11 917 3 0 5 -403 5 -896z m1570 -662 c0 -63 -4 -102 -12
-110 -9 -9 -9 -12 1 -12 7 0 11 -9 9 -20 -3 -23 54 -21 -732 -20 l-134 0 -1
130 -1 130 435 0 435 0 0 -98z m-412 -182 c395 0 402 0 402 -20 0 -20 -7 -20
-424 -20 -411 0 -424 1 -429 19 -6 25 2 34 28 27 11 -3 201 -6 423 -6z m-3598
-67 c0 -10 -83 -13 -379 -13 -332 0 -404 4 -387 21 3 2 176 4 385 4 298 0 381
-3 381 -12z m3 -38 c1 -7 -133 -11 -385 -13 -342 -2 -388 0 -388 13 0 13 46
15 385 13 246 -2 386 -7 388 -13z m45 -60 l-3 -30 -427 -3 -428 -2 0 32 0 33
430 0 431 0 -3 -30z"/>
<path d="M7429 7055 c-1 -218 -2 -113 2 -837 2 -343 5 -550 6 -460 3 119 7
162 15 160 8 -3 11 -49 9 -161 l-3 -157 751 0 751 0 0 815 0 815 -750 0 -750
0 0 -225 c0 -151 -3 -225 -11 -225 -7 0 -9 72 -7 225 2 124 0 225 -4 225 -5 0
-8 -79 -9 -175z m1373 -62 l3 -218 2 218 3 217 70 0 70 0 -2 -792 -3 -793 -67
-3 -68 -3 -2 203 -3 203 -2 -202 -3 -203 -210 0 -210 0 0 110 0 110 -450 0
-450 0 0 40 c0 38 2 40 30 40 l30 0 0 430 0 430 -30 0 -30 0 0 215 0 215 660
0 660 0 2 -217z m-1339 -646 c-1 -226 -6 -411 -10 -410 -4 2 -9 190 -11 418
-2 330 0 413 10 410 10 -4 13 -93 11 -418z m55 -2 l-3 -410 -5 405 -5 405 -3
-402 c-1 -261 -6 -403 -12 -403 -7 0 -10 143 -10 409 0 404 0 410 20 408 20
-1 20 -8 18 -412z m279 -544 c5 -37 13 -38 13 -3 l0 32 278 -2 277 -3 0 -103
0 -103 -290 0 c-159 0 -359 0 -442 0 l-153 1 0 105 0 106 157 -3 156 -3 4 -24z"/>
<path d="M8705 6970 c-27 -7 -25 -8 18 -9 28 -1 47 -6 47 -13 0 -6 3 -8 6 -5
9 9 -15 37 -30 36 -6 -1 -24 -5 -41 -9z"/>
<path d="M8420 6780 l0 -190 73 2 72 2 -67 3 -68 4 0 179 c0 162 2 179 18 183
13 4 11 5 -5 6 l-23 1 0 -190z"/>
<path d="M8531 6840 c-78 -79 -27 -200 85 -200 28 0 44 8 70 34 29 29 34 41
34 81 0 40 -5 52 -34 81 -29 29 -41 34 -79 34 -37 0 -51 -5 -76 -30z m150 -9
c24 -24 29 -38 29 -76 0 -63 -39 -105 -98 -105 -76 0 -125 66 -102 136 25 76
116 100 171 45z"/>
<path d="M8860 6820 c-7 -4 -10 -18 -8 -31 2 -19 9 -24 35 -26 32 -1 47 15 37
41 -6 16 -47 26 -64 16z m57 -27 c3 -7 -7 -11 -26 -11 -31 1 -38 8 -24 22 11
10 46 3 50 -11z"/>
<path d="M8803 6725 c0 -27 2 -38 4 -22 2 15 2 37 0 50 -2 12 -4 0 -4 -28z"/>
<path d="M8850 6734 c0 -7 12 -10 30 -8 17 2 30 -1 30 -6 0 -6 -13 -10 -30
-10 -16 0 -30 -4 -30 -10 0 -5 14 -10 31 -10 20 0 29 -4 26 -12 -2 -7 -15 -12
-28 -10 -22 3 -25 -1 -26 -31 -1 -30 1 -33 23 -29 26 5 33 22 9 22 -8 0 -15 5
-15 11 0 6 9 9 20 6 12 -3 21 1 24 12 3 13 2 64 -3 81 -2 10 -61 4 -61 -6z"/>
<path d="M8911 6598 c-1 -23 -6 -28 -25 -28 -13 0 -26 6 -29 13 -2 6 -8 9 -12
5 -13 -12 15 -38 41 -38 28 0 45 27 33 55 -7 17 -8 17 -8 -7z"/>
<path d="M8804 6480 c0 -63 1 -89 3 -57 2 31 2 83 0 115 -2 31 -3 5 -3 -58z"/>
<path d="M8850 6473 c1 -36 2 -37 15 -19 8 11 15 15 15 9 0 -14 38 -24 46 -12
3 5 -5 9 -18 9 -20 1 -21 2 -5 11 9 5 17 17 17 26 0 13 -3 14 -12 5 -7 -7 -21
-12 -32 -12 -17 0 -18 2 -6 10 13 8 12 10 -2 10 -14 0 -18 -8 -18 -37z"/>
<path d="M8760 6433 c0 -5 -34 -8 -76 -8 -68 0 -78 -3 -95 -24 -25 -30 -24
-73 2 -102 l21 -24 -16 25 c-23 36 -20 75 7 97 18 14 37 17 90 15 l67 -4 0
-64 0 -64 -31 0 c-20 0 -28 4 -23 12 5 7 3 8 -7 3 -7 -5 -29 -12 -49 -15 -27
-5 -20 -7 32 -7 36 -1 71 -4 77 -7 8 -5 11 21 11 83 0 50 -2 91 -5 91 -3 0 -5
-3 -5 -7z"/>
<path d="M8906 6421 c-4 -5 -17 -8 -31 -6 -26 2 -33 -9 -14 -20 16 -10 56 3
63 20 6 16 -9 21 -18 6z"/>
<path d="M8713 6350 c0 -25 2 -35 4 -22 2 12 2 32 0 45 -2 12 -4 2 -4 -23z"/>
<path d="M8853 6313 c2 -55 3 -58 30 -61 15 -2 27 -8 27 -14 0 -6 -13 -8 -29
-6 l-29 4 1 -61 2 -60 33 3 c27 4 33 8 30 26 -2 13 -11 22 -26 24 -26 4 -20
22 8 22 14 0 18 8 19 33 0 17 2 41 3 52 2 15 -4 21 -24 23 -34 4 -37 19 -5 24
14 2 23 11 25 26 3 19 -1 22 -32 22 l-35 0 2 -57z m47 26 c0 -11 -27 -12 -34
0 -3 4 -3 11 0 14 8 8 34 -3 34 -14z m8 -61 c-3 -7 -13 -13 -23 -13 -10 0 -20
6 -22 13 -3 7 5 12 22 12 17 0 25 -5 23 -12z m-3 -68 c-3 -5 -15 -10 -26 -10
-10 0 -19 5 -19 10 0 6 12 10 26 10 14 0 23 -4 19 -10z m5 -70 c0 -5 -6 -10
-14 -10 -8 0 -18 5 -21 10 -3 6 3 10 14 10 12 0 21 -4 21 -10z"/>
<path d="M8804 6200 c0 -91 2 -128 3 -82 2 45 2 119 0 165 -1 45 -3 8 -3 -83z"/>
<path d="M8422 5943 l3 -188 155 -3 c173 -3 200 0 200 26 0 11 -3 13 -8 5 -5
-8 -59 -12 -172 -14 l-165 -2 -3 178 -2 177 44 -6 c27 -4 47 -3 51 4 4 6 -13
10 -50 10 l-55 0 2 -187z"/>
<path d="M8862 6091 c-25 -16 -10 -46 23 -46 25 0 31 4 33 28 3 23 0 27 -20
27 -13 0 -29 -4 -36 -9z m48 -21 c0 -5 -11 -10 -25 -10 -14 0 -25 5 -25 10 0
6 11 10 25 10 14 0 25 -4 25 -10z"/>
<path d="M8534 6056 c-21 -21 -34 -43 -33 -57 1 -20 2 -19 10 8 25 86 151 98
187 18 47 -103 -48 -192 -149 -140 -19 11 -32 26 -36 46 -3 16 -10 32 -14 35
-12 7 -11 -1 6 -42 10 -26 26 -40 59 -55 42 -18 47 -18 84 -4 115 46 84 225
-39 225 -33 0 -47 -6 -75 -34z"/>
<path d="M8862 6021 c-8 -4 -12 -19 -10 -32 2 -19 9 -24 33 -24 27 0 30 3 30
30 0 22 -5 31 -20 33 -11 1 -26 -2 -33 -7z m46 -24 c4 -20 -25 -34 -40 -19
-15 15 -1 44 19 40 10 -2 19 -11 21 -21z"/>
<path d="M7792 5655 c0 -16 2 -22 5 -12 2 9 2 23 0 30 -3 6 -5 -1 -5 -18z"/>
<path d="M7111 7136 c-8 -9 -11 -41 -8 -88 l3 -73 2 78 c2 70 4 77 22 77 18 0
20 -7 20 -70 0 -38 4 -70 9 -70 4 0 6 30 4 68 -6 84 -24 111 -52 78z"/>
<path d="M6593 7114 c-4 -10 -1 -48 5 -86 7 -38 12 -95 12 -128 0 -79 16 -90
126 -90 104 0 110 6 116 120 3 47 1 76 -3 65 -4 -11 -8 -50 -8 -87 -1 -58 -4
-69 -22 -79 -25 -13 -174 -9 -188 6 -5 6 -11 53 -13 105 l-3 95 125 1 125 1
10 27 c19 54 3 61 -144 64 -116 2 -132 1 -138 -14z m273 -18 c3 -14 3 -30 -1
-35 -4 -7 -55 -11 -136 -11 l-129 0 0 35 0 35 130 0 c129 0 130 0 136 -24z"/>
<path d="M6777 7093 c-4 -3 -7 -11 -7 -17 0 -6 5 -5 12 2 6 6 9 14 7 17 -3 3
-9 2 -12 -2z"/>
<path d="M6283 7087 c-66 -25 -92 -101 -57 -168 49 -96 214 -45 214 67 0 39
-37 93 -68 100 -15 3 -34 7 -42 9 -8 2 -29 -2 -47 -8z m97 -17 c25 -13 40 -41
45 -83 3 -26 -2 -41 -26 -70 -27 -33 -35 -37 -77 -37 -52 0 -61 4 -85 40 -46
68 1 160 83 160 23 0 50 -5 60 -10z"/>
<path d="M6346 7050 c28 -11 54 -48 54 -78 0 -13 -14 -36 -32 -54 -23 -21 -26
-27 -11 -19 31 16 53 51 53 84 0 32 -40 77 -67 76 -15 0 -14 -2 3 -9z"/>
<path d="M6257 7033 c-16 -19 -20 -34 -18 -70 1 -24 33 -63 52 -63 7 0 0 9
-15 21 -31 24 -36 81 -9 111 9 10 14 18 11 18 -3 0 -12 -8 -21 -17z"/>
<path d="M7062 7023 c-7 -3 -19 -18 -27 -33 -58 -113 74 -213 170 -129 31 27
35 37 35 78 0 45 -21 91 -41 91 -6 0 -1 -12 10 -26 49 -62 4 -164 -71 -164
-50 0 -96 32 -103 74 -8 42 0 70 28 96 21 21 21 22 -1 13z"/>
<path d="M1542 6808 l3 -213 188 -3 187 -2 0 215 0 215 -190 0 -190 0 2 -212z
m358 180 c6 -258 3 -383 -8 -382 -6 1 -84 2 -172 3 l-160 1 0 200 0 200 170 0
c169 0 170 0 170 -22z"/>
<path d="M4540 6970 c-15 -5 54 -8 168 -9 l192 -1 0 -50 0 -50 -229 0 c-127 0
-232 4 -235 9 -3 5 -2 30 3 56 l9 47 -87 -4 c-84 -4 -90 -6 -135 -42 l-46 -39
23 -31 c39 -52 39 -53 -2 -85 l-39 -31 -25 39 -25 38 31 33 c21 21 25 29 12
22 -11 -6 -28 -19 -39 -30 -17 -20 -17 -22 14 -66 17 -25 33 -46 36 -46 13 0
84 65 84 76 0 7 -12 27 -26 44 l-27 31 24 26 c34 36 79 53 143 53 60 0 71 -8
62 -45 -5 -20 -13 -24 -54 -28 l-47 -3 48 -2 c32 -1 50 -7 53 -17 5 -13 42
-15 245 -15 l239 0 0 60 0 60 -77 1 c-43 0 -121 2 -173 4 -52 2 -106 0 -120
-5z"/>
<path d="M4831 6927 c-13 -21 -12 -21 5 -5 10 10 16 20 13 22 -3 3 -11 -5 -18
-17z"/>
<path d="M4530 6932 c0 -14 40 -25 71 -19 17 3 14 5 -11 6 -20 0 -41 6 -48 13
-9 9 -12 9 -12 0z"/>
<path d="M4678 6913 c18 -2 45 -2 60 0 15 2 0 4 -33 4 -33 0 -45 -2 -27 -4z"/>
<path d="M4273 6873 c-13 -8 -23 -21 -23 -27 0 -8 2 -8 8 0 4 6 21 18 37 27
17 9 23 16 15 16 -8 0 -25 -7 -37 -16z"/>
<path d="M2145 6758 c-2 -7 -1 -192 3 -412 l7 -398 515 0 515 0 3 404 2 405
-292 6 c-478 11 -748 9 -753 -5z m767 -8 l269 0 -3 -394 c-2 -217 -5 -396 -8
-399 -3 -2 -57 -1 -120 3 -63 3 -286 3 -495 0 -209 -3 -383 -4 -387 -2 -5 2
-8 184 -8 404 l0 401 242 -6 c133 -4 362 -7 510 -7z"/>
<path d="M3913 6403 c-10 -4 -13 -72 -13 -294 l0 -289 410 0 410 0 0 -25 c0
-14 5 -25 11 -25 5 0 7 5 4 10 -4 6 8 10 29 10 25 0 36 -4 36 -15 0 -11 -11
-15 -41 -15 -22 0 -38 -4 -35 -8 3 -5 19 -7 36 -4 18 2 30 0 30 -7 0 -9 -28
-16 -52 -12 -5 0 -8 -4 -8 -9 0 -6 15 -10 34 -10 30 0 34 4 40 31 10 53 8 68
-12 63 -9 -3 -28 -1 -42 5 -19 7 9 10 108 10 l132 1 -2 292 -3 292 -530 2
c-291 1 -536 0 -542 -3z m1067 -288 l0 -275 -110 -1 c-60 -1 -119 -1 -130 -1
-11 0 -202 0 -425 1 l-405 1 0 275 0 275 535 0 535 0 0 -275z"/>
<path d="M4499 6260 c-1 -3 -3 -26 -4 -52 -3 -56 12 -65 17 -10 l3 37 20 -37
c10 -21 24 -38 31 -38 15 0 17 87 3 96 -7 4 -10 -3 -9 -17 4 -43 0 -44 -30 -9
-16 19 -30 33 -31 30z"/>
<path d="M4622 6244 c-26 -18 -29 -56 -6 -78 17 -18 20 -18 52 -10 15 4 22 14
22 30 0 20 -5 24 -27 24 -24 -1 -25 -2 -10 -11 24 -14 21 -31 -5 -27 -18 2
-24 11 -26 37 -3 33 -3 34 27 28 35 -7 40 -2 13 12 -14 7 -25 6 -40 -5z"/>
<path d="M4240 6206 c0 -51 5 -56 40 -45 24 7 24 7 3 8 -24 1 -26 7 -23 54 1
15 -3 27 -9 27 -6 0 -11 -19 -11 -44z"/>
<path d="M4333 6205 c0 -27 2 -38 4 -22 2 15 2 37 0 50 -2 12 -4 0 -4 -28z"/>
<path d="M4360 6245 c0 -14 33 -85 40 -85 4 0 15 18 24 40 18 47 19 50 7 50
-4 0 -13 -15 -18 -32 l-10 -33 -13 33 c-6 17 -16 32 -21 32 -5 0 -9 -2 -9 -5z"/>
<path d="M4460 6205 c0 -25 5 -45 10 -45 6 0 10 20 10 45 0 25 -4 45 -10 45
-5 0 -10 -20 -10 -45z"/>
<path d="M4236 6094 c-10 -25 -7 -84 4 -84 6 0 10 9 10 20 0 28 26 25 46 -5
20 -30 31 -27 13 3 -10 16 -10 23 -1 35 10 12 9 18 -3 31 -21 21 -61 21 -69 0z
m64 -13 c0 -9 -24 -21 -41 -21 -5 0 -9 7 -9 15 0 9 9 15 25 15 14 0 25 -4 25
-9z"/>
<path d="M4392 6103 c-22 -9 -33 -40 -23 -66 13 -34 47 -44 72 -21 44 40 6
109 -49 87z m48 -34 c14 -24 -2 -49 -31 -49 -24 0 -32 16 -25 46 8 30 41 32
56 3z"/>
<path d="M4492 6098 c-20 -20 -15 -76 9 -88 41 -23 88 35 61 77 -11 18 -56 25
-70 11z m53 -43 c0 -25 -4 -30 -25 -30 -16 0 -26 6 -28 18 -6 30 6 49 30 45
18 -2 23 -9 23 -33z"/>
<path d="M4590 6060 c0 -27 5 -50 10 -50 6 0 10 12 10 26 0 14 4 23 10 19 6
-3 10 -15 10 -26 0 -31 17 -22 24 14 5 23 9 28 15 18 5 -7 6 -22 4 -32 -3 -10
0 -19 6 -19 7 0 11 20 11 50 0 54 -14 65 -32 25 -6 -14 -14 -25 -18 -25 -4 0
-12 11 -18 25 -18 40 -32 29 -32 -25z"/>
<path d="M4328 6063 c5 -59 10 -63 11 -10 1 26 -3 47 -7 47 -4 0 -6 -17 -4
-37z"/>
<path d="M3858 6183 c-14 -4 -18 -15 -18 -54 0 -46 2 -49 25 -49 23 0 25 3 25
49 0 53 -4 60 -32 54z"/>
<path d="M5000 6130 c0 -40 3 -50 17 -50 20 0 113 41 113 50 0 4 -12 12 -27
19 -16 8 -36 17 -45 22 -10 5 -27 9 -38 9 -17 0 -20 -7 -20 -50z m96 8 c3 -4
-4 -11 -15 -18 -18 -9 -21 -8 -21 9 0 18 21 23 36 9z"/>
<path d="M3770 6145 c-6 -8 -9 -19 -5 -25 9 -14 23 -13 21 3 0 6 4 12 9 12 6
0 9 -8 8 -17 -2 -12 4 -18 15 -17 9 0 12 3 5 5 -8 4 -9 13 -3 30 8 21 7 24
-14 24 -13 0 -29 -7 -36 -15z"/>
<path d="M1546 5863 l2 -218 183 0 184 0 0 215 0 215 -185 3 -185 2 1 -217z
m354 -3 l0 -199 -162 -3 c-90 -2 -166 -2 -170 0 -5 2 -8 93 -8 203 l0 199 170
0 170 0 0 -200z"/>
<path d="M2522 5878 l-2 -48 34 0 c33 0 34 1 38 45 2 25 0 45 -4 45 -4 0 -8
-17 -10 -37 -2 -30 -8 -39 -25 -41 -19 -3 -22 2 -26 40 l-4 43 -1 -47z"/>
<path d="M2616 5893 c12 -51 18 -53 41 -12 12 21 17 39 11 39 -5 0 -12 -9 -15
-20 -6 -23 -23 -27 -23 -6 0 8 -5 18 -10 21 -7 4 -8 -3 -4 -22z"/>
<path d="M2696 5911 c-10 -15 5 -41 23 -41 13 0 13 2 2 9 -17 11 -5 32 14 24
8 -3 15 0 15 6 0 13 -46 15 -54 2z"/>
<path d="M2806 5890 c4 -19 1 -36 -7 -47 -12 -14 -12 -16 0 -12 23 8 34 34 27
62 -9 37 -27 34 -20 -3z"/>
<path d="M2727 5854 c-28 -24 -28 -24 -5 -24 28 1 58 22 58 41 0 12 -2 12 -9
0 -5 -8 -10 -9 -12 -3 -2 6 -17 0 -32 -14z"/>
<path d="M2545 5770 c-3 -5 -2 -10 4 -10 5 0 13 5 16 10 3 6 2 10 -4 10 -5 0
-13 -4 -16 -10z"/>
<path d="M2737 5773 c-12 -3 -16 -10 -13 -20 3 -8 6 -26 6 -39 0 -33 37 -33
46 0 12 49 -1 69 -39 59z m33 -28 c0 -8 -7 -15 -15 -15 -8 0 -15 7 -15 15 0 8
7 15 15 15 8 0 15 -7 15 -15z m-10 -35 c0 -5 -4 -10 -10 -10 -5 0 -10 5 -10
10 0 6 5 10 10 10 6 0 10 -4 10 -10z"/>
<path d="M2815 5770 c3 -5 8 -10 11 -10 2 0 4 5 4 10 0 6 -5 10 -11 10 -5 0
-7 -4 -4 -10z"/>
<path d="M2659 5749 c14 -6 28 -6 33 -1 5 5 -5 9 -24 10 -31 0 -31 -1 -9 -9z"/>
<path d="M2540 5742 c0 -5 9 -12 20 -15 11 -3 20 -11 20 -17 0 -7 -8 -10 -20
-7 -11 3 -20 1 -20 -5 0 -5 10 -8 23 -6 22 3 40 48 19 48 -6 0 -17 3 -26 6 -9
3 -16 2 -16 -4z"/>
<path d="M2647 5708 c-3 -8 5 -14 20 -14 19 -2 22 1 12 12 -14 17 -25 18 -32
2z"/>
<path d="M1547 4934 c-3 -15 -2 -100 1 -189 l5 -162 170 -6 c93 -3 176 -3 183
0 12 4 14 39 12 192 l-3 186 -181 3 -182 2 -5 -26z m353 -166 l0 -178 -170 0
-170 0 0 174 c0 173 0 175 23 178 12 2 88 3 170 3 l147 0 0 -177z"/>
<path d="M1861 4884 c0 -11 3 -14 6 -6 3 7 2 16 -1 19 -3 4 -6 -2 -5 -13z"/>
<path d="M2127 4613 c-4 -3 -7 -16 -6 -27 0 -21 0 -21 9 1 l9 21 485 1 486 1
0 -505 0 -504 -482 6 c-266 3 -484 6 -485 7 -1 1 -4 212 -7 470 -2 257 -7 470
-10 473 -3 4 -6 1 -6 -5 0 -9 -78 -12 -282 -14 l-283 -3 -3 -433 -2 -433 132
3 133 3 0 205 0 205 -120 6 c-66 4 -123 7 -127 8 -4 0 -6 97 -5 214 l2 212
278 3 277 2 0 -430 0 -429 -152 -4 -153 -3 153 -2 152 -2 0 -24 c0 -14 3 -27
8 -29 4 -3 229 -8 500 -12 l492 -7 0 516 0 516 -493 0 c-272 0 -497 -3 -500
-7z m-374 -542 l57 -1 0 -195 0 -195 -125 0 -125 0 0 201 0 200 68 -5 c37 -3
93 -5 125 -5z"/>
<path d="M1596 4035 c-3 -9 -5 -71 -4 -138 l2 -122 5 135 c3 74 5 136 5 138
-1 2 -4 -4 -8 -13z"/>
<path d="M1602 3730 c4 -12 27 -16 101 -20 54 -3 97 -2 97 3 0 4 -40 7 -88 7
-57 0 -93 4 -101 13 -11 10 -13 9 -9 -3z"/>
<path d="M1810 4498 c-1 -7 0 -95 0 -195 l1 -182 -108 -4 -108 -3 113 -2 112
-2 0 200 c0 110 -2 200 -5 200 -3 0 -5 -6 -5 -12z"/>
<path d="M1591 4463 c0 -24 1 -25 8 -8 7 17 20 21 87 26 l79 5 -87 2 -88 2 1
-27z"/>
<path d="M7257 4423 c-4 -3 -7 -195 -7 -425 l0 -418 395 0 395 0 0 105 c0 63
-4 105 -10 105 -6 0 -10 -40 -10 -100 l0 -100 -376 2 -376 3 -4 408 -5 407
214 0 c118 0 289 3 380 7 l167 6 0 -131 c0 -81 4 -132 10 -132 6 0 10 52 10
135 l0 135 -388 0 c-214 0 -392 -3 -395 -7z"/>
<path d="M6370 4353 c0 -5 -1 -140 -3 -300 l-3 -293 36 -1 c258 -5 457 -6 467
-2 10 4 13 69 13 304 l0 299 -255 0 c-140 0 -255 -3 -255 -7z m500 -293 l0
-290 -245 0 -245 0 0 285 0 285 188 3 c103 1 213 3 245 5 l57 2 0 -290z"/>
<path d="M1592 4245 c-1 -44 2 -85 6 -92 4 -7 6 20 4 60 -5 108 -9 122 -10 32z"/>
<path d="M7843 4035 c0 -27 2 -40 4 -27 5 28 19 28 33 1 7 -11 14 -18 17 -16
2 3 0 15 -7 26 -8 15 -8 27 0 41 7 12 7 20 1 20 -5 0 -13 -9 -16 -20 -8 -27
-23 -25 -28 3 -2 12 -4 0 -4 -28z"/>
<path d="M7928 4073 c-2 -5 -1 -26 3 -48 l6 -40 2 48 c1 44 -3 57 -11 40z"/>
<path d="M7969 4030 c3 -25 6 -36 8 -25 2 11 8 31 12 45 7 20 5 26 -8 26 -13
0 -15 -9 -12 -46z"/>
<path d="M8014 4054 c-4 -15 -2 -34 3 -43 12 -19 65 -21 71 -3 3 11 0 11 -16
1 -17 -10 -23 -10 -36 0 -9 8 -16 19 -16 26 0 7 7 18 16 26 13 10 19 10 36 0
16 -10 19 -10 16 1 -3 7 -19 14 -36 16 -27 3 -32 -1 -38 -24z"/>
<path d="M8194 4056 c-10 -43 3 -66 39 -65 30 2 31 2 5 6 -16 2 -28 10 -28 18
0 8 12 16 28 18 l27 4 -28 2 c-34 1 -32 22 4 32 22 6 21 7 -8 8 -27 1 -34 -4
-39 -23z"/>
<path d="M8282 4048 c0 -20 -3 -41 -7 -47 -3 -6 -1 -11 4 -11 6 0 11 12 11 28
l1 27 20 -27 c29 -39 39 -35 39 17 0 25 -4 45 -8 45 -5 0 -7 -13 -4 -30 3 -18
0 -30 -7 -30 -6 0 -11 3 -11 8 0 4 -9 18 -19 31 l-19 25 0 -36z"/>
<path d="M4657 4063 c-4 -3 -7 -26 -7 -50 l0 -43 38 1 37 1 -33 9 c-34 10 -35
29 -1 29 10 0 19 5 19 10 0 6 -9 10 -20 10 -11 0 -20 5 -20 10 0 6 12 10 26
10 14 0 23 4 19 10 -7 11 -48 14 -58 3z"/>
<path d="M4836 4057 c-22 -16 -18 -65 6 -80 23 -15 70 6 62 28 -3 8 -12 15
-20 15 -7 0 -11 -6 -8 -14 8 -20 -10 -27 -31 -12 -12 9 -15 19 -10 35 6 19 12
22 36 17 30 -6 40 7 13 18 -22 9 -28 8 -48 -7z"/>
<path d="M8110 4047 c0 -14 -3 -32 -6 -41 -3 -9 -1 -16 5 -16 6 0 11 9 11 20
0 30 47 28 53 -2 2 -13 5 -3 5 22 1 35 -1 41 -9 28 -12 -22 -23 -23 -43 -2
-15 14 -16 13 -16 -9z"/>
<path d="M4460 4015 l0 -44 35 1 c21 1 31 5 24 9 -7 4 -18 5 -26 2 -9 -4 -13
6 -13 36 0 23 -4 41 -10 41 -5 0 -10 -20 -10 -45z"/>
<path d="M4540 4021 c0 -23 4 -41 10 -41 11 0 10 69 -2 76 -4 3 -8 -13 -8 -35z"/>
<path d="M4575 4043 c4 -10 10 -28 12 -40 8 -35 28 -27 41 14 15 47 7 56 -11
12 l-13 -34 -12 33 c-6 17 -14 32 -18 32 -3 0 -3 -8 1 -17z"/>
<path d="M4741 4018 c1 -24 4 -33 6 -20 2 12 8 22 12 22 5 0 16 -10 24 -22 16
-23 16 -22 16 17 0 22 -3 34 -6 28 -5 -15 -33 -18 -33 -4 0 5 6 12 13 14 6 3
2 6 -10 6 -21 1 -23 -3 -22 -41z"/>
<path d="M7885 3919 c-7 -11 22 -38 40 -38 6 0 1 7 -10 15 -11 8 -19 20 -17
25 3 12 -5 11 -13 -2z"/>
<path d="M7958 3923 c6 -2 18 -2 25 0 6 3 1 5 -13 5 -14 0 -19 -2 -12 -5z"/>
<path d="M8188 3924 c-21 -21 -1 -84 26 -84 5 0 1 6 -10 14 -21 16 -13 31 21
39 19 4 18 5 -2 6 -12 0 -23 8 -25 17 -2 9 -6 12 -10 8z"/>
<path d="M8270 3915 c0 -8 2 -15 4 -15 2 0 6 7 10 15 3 8 1 15 -4 15 -6 0 -10
-7 -10 -15z"/>
<path d="M8136 3893 c10 -40 14 -41 14 -5 0 18 -5 32 -10 32 -6 0 -8 -11 -4
-27z"/>
<path d="M4470 3899 c-12 -8 -10 -9 8 -4 28 8 30 -15 2 -40 -11 -10 -20 -22
-20 -27 0 -12 98 -10 105 2 3 6 1 10 -5 10 -6 0 -8 5 -5 10 3 6 1 10 -4 10 -6
0 -11 -7 -11 -15 0 -10 -10 -15 -30 -15 -16 0 -30 5 -30 10 0 6 4 10 10 10 5
0 14 10 21 21 9 17 8 23 -2 30 -18 11 -21 11 -39 -2z"/>
<path d="M4550 3903 c8 -3 18 -11 22 -17 5 -7 8 -4 8 7 0 11 -7 17 -22 16 -16
0 -18 -2 -8 -6z"/>
<path d="M4737 3903 c-11 -10 -8 -73 3 -73 5 0 7 7 4 15 -4 9 0 15 10 15 9 0
16 5 16 10 0 6 -7 10 -15 10 -29 0 -15 19 18 23 l32 4 -31 1 c-17 1 -34 -1
-37 -5z"/>
<path d="M4815 3900 c3 -5 8 -10 11 -10 2 0 4 5 4 10 0 6 -5 10 -11 10 -5 0
-7 -4 -4 -10z"/>
<path d="M4841 3894 c0 -11 3 -14 6 -6 3 7 2 16 -1 19 -3 4 -6 -2 -5 -13z"/>
<path d="M8040 3895 c7 -8 9 -23 4 -37 -6 -19 -5 -21 8 -11 8 7 18 10 22 6 10
-10 -5 29 -17 45 -5 6 -14 12 -19 12 -6 0 -5 -6 2 -15z"/>
<path d="M4650 3867 c0 -8 -3 -24 -6 -34 -5 -14 -4 -15 4 -4 6 8 17 11 28 7
16 -6 16 -5 -1 16 -11 13 -21 25 -22 27 -2 2 -3 -3 -3 -12z"/>
<path d="M7915 3860 c-4 -6 -16 -8 -28 -5 -20 5 -20 5 -3 -6 14 -9 21 -8 34 5
9 9 13 16 10 16 -4 0 -10 -5 -13 -10z"/>
<path d="M6441 3643 c1 -46 1 -47 13 -20 7 15 16 24 20 20 4 -4 3 4 -2 17 -16
44 -32 35 -31 -17z"/>
<path d="M6497 3655 c-19 -40 -21 -55 -8 -55 5 0 12 15 16 33 l8 32 7 -35 c7
-34 7 -34 9 13 1 56 -9 60 -32 12z"/>
<path d="M6558 3673 c7 -12 12 -33 12 -47 0 -14 5 -26 10 -26 6 0 10 13 10 29
0 17 5 33 10 36 6 3 10 11 10 17 0 7 -6 6 -15 -2 -12 -10 -18 -10 -32 1 -15
13 -15 12 -5 -8z"/>
<path d="M6634 3676 c-3 -8 -4 -27 -2 -43 4 -34 40 -43 69 -17 15 13 19 14 19
3 1 -10 4 -9 11 4 14 24 49 22 49 -4 0 -11 5 -17 10 -14 6 3 10 21 10 40 0 19
-4 37 -10 40 -5 3 -10 -3 -10 -14 0 -27 -46 -30 -53 -3 -4 13 -5 13 -6 -4 -1
-25 -46 -58 -67 -50 -16 6 -18 34 -4 56 8 12 13 13 30 3 27 -17 35 -16 20 2
-16 19 -59 20 -66 1z"/>
<path d="M1547 3613 c-7 -16 -9 -281 -2 -336 l7 -57 184 0 184 0 0 194 c0 192
0 194 -22 200 -33 8 -346 7 -351 -1z m358 -195 l-4 -183 -170 -3 -171 -2 0
185 0 185 174 0 174 0 -3 -182z"/>
<path d="M8414 3577 c-2 -7 -3 -89 -2 -182 l3 -170 179 -3 c123 -2 183 1 192
9 19 15 20 329 2 347 -8 8 -55 12 -147 12 l-136 0 0 -177 0 -178 -40 0 -40 0
-3 164 c-2 112 1 168 9 177 9 11 9 14 0 14 -6 0 -14 -6 -17 -13z m371 -172 l0
-170 -130 0 -130 0 -3 160 c-1 87 0 165 3 172 3 11 34 13 132 11 l128 -3 0
-170z"/>
<path d="M8455 3580 c-3 -5 1 -10 9 -10 8 0 18 5 21 10 3 6 -1 10 -9 10 -8 0
-18 -4 -21 -10z"/>
<path d="M8457 3530 c-3 -13 -3 -28 2 -33 13 -13 19 5 11 33 l-6 25 -7 -25z"/>
<path d="M6490 3533 c0 -5 11 -8 24 -8 13 0 22 3 19 8 -2 4 -13 7 -24 7 -10 0
-19 -3 -19 -7z"/>
<path d="M6684 3525 c-3 -8 -4 -20 -1 -27 4 -8 6 -6 6 5 1 9 6 17 11 17 6 0
10 5 10 10 0 15 -20 12 -26 -5z"/>
<path d="M6727 3512 c-7 -35 1 -52 24 -52 31 0 34 28 6 54 l-25 23 -5 -25z
m33 -36 c-13 -13 -35 7 -25 24 5 8 11 8 21 -1 10 -8 12 -15 4 -23z"/>
<path d="M6810 3529 c0 -5 5 -7 10 -4 6 3 10 8 10 11 0 2 -4 4 -10 4 -5 0 -10
-5 -10 -11z"/>
<path d="M6437 3522 c6 -4 13 -21 16 -37 4 -27 4 -27 6 8 1 29 -3 37 -16 37
-12 0 -14 -3 -6 -8z"/>
<path d="M6581 3511 c10 -15 10 -23 0 -35 -9 -11 -10 -16 -2 -16 6 0 11 5 11
11 0 9 4 8 14 0 10 -9 13 -5 12 18 -1 16 -3 28 -5 25 -2 -2 -12 1 -23 7 -17 9
-18 8 -7 -10z"/>
<path d="M6502 3488 c-18 -18 -14 -28 11 -28 18 0 19 2 7 10 -13 9 -13 11 0
20 8 5 10 10 5 10 -6 0 -16 -5 -23 -12z"/>
<path d="M4054 3477 c-2 -7 -3 -82 -2 -167 l3 -155 133 -3 132 -3 0 171 0 170
-130 0 c-98 0 -132 -3 -136 -13z m249 -6 c4 -1 7 -10 7 -21 0 -19 -7 -20 -120
-20 l-120 0 0 25 0 24 113 -4 c61 -2 115 -4 120 -4z m5 -178 l-3 -128 -117 -1
-118 0 0 128 0 128 120 0 121 0 -3 -127z"/>
<path d="M4914 3477 c-2 -7 -3 -82 -2 -167 l3 -155 138 -3 137 -3 0 171 0 170
-135 0 c-102 0 -137 -3 -141 -13z m261 -22 c0 -19 -8 -20 -122 -23 -117 -2
-123 -2 -123 17 0 22 31 26 180 26 58 0 65 -2 65 -20z m0 -164 l0 -124 -125
-1 -125 -1 -3 85 c-2 47 0 104 3 128 l6 43 122 -3 122 -3 0 -124z"/>
<path d="M4340 3265 l0 -115 135 0 135 0 0 115 0 115 -135 0 -135 0 0 -115z
m258 3 l-3 -103 -120 0 -120 0 -3 103 -3 102 126 0 126 0 -3 -102z"/>
<path d="M4624 3343 c3 -21 6 -73 6 -115 l0 -78 135 0 135 0 0 115 0 115 -141
0 -142 0 7 -37z m264 -75 l-3 -102 -122 -3 -123 -3 0 105 0 105 125 0 126 0
-3 -102z"/>
<path d="M5678 7013 c6 -2 18 -2 25 0 6 3 1 5 -13 5 -14 0 -19 -2 -12 -5z"/>
<path d="M5828 7010 c12 -5 27 -20 32 -32 l9 -23 0 22 c1 22 -25 44 -51 42 -7
0 -3 -4 10 -9z"/>
<path d="M5644 6835 c0 -71 1 -99 3 -62 2 37 2 96 0 130 -2 34 -3 4 -3 -68z"/>
<path d="M5871 6684 c0 -11 3 -14 6 -6 3 7 2 16 -1 19 -3 4 -6 -2 -5 -13z"/>
<path d="M5856 6653 c-4 -5 -47 -11 -94 -14 l-87 -6 85 -1 c77 -2 123 8 109
22 -3 4 -9 3 -13 -1z"/>
<path d="M5327 6703 c-13 -12 -8 -93 6 -95 6 0 17 -2 22 -3 6 -2 21 -3 33 -4
l24 -1 -3 -227 c-4 -222 -3 -228 16 -228 14 0 21 8 23 28 2 19 -1 27 -13 27
-14 0 -16 23 -15 200 1 166 4 200 16 200 11 0 14 14 12 58 -2 56 -2 56 -5 10
-3 -34 -8 -48 -19 -48 -18 0 -19 60 -1 79 10 11 9 13 -3 9 -10 -3 -16 -20 -18
-51 -2 -33 -7 -47 -18 -47 -9 0 -14 12 -15 38 l-2 37 -6 -33 c-9 -46 -26 -36
-25 16 0 23 0 42 -1 42 -1 0 -5 -3 -8 -7z m113 -533 c0 -5 -7 -10 -16 -10 -8
0 -12 5 -9 10 3 6 10 10 16 10 5 0 9 -4 9 -10z"/>
<path d="M5355 6700 c4 -6 11 -8 16 -5 14 9 11 15 -7 15 -8 0 -12 -5 -9 -10z"/>
<path d="M6702 3305 c0 -16 2 -22 5 -12 2 9 2 23 0 30 -3 6 -5 -1 -5 -18z"/>
<path d="M6222 3248 l1 -63 6 55 6 55 122 3 122 3 4 -41 4 -40 -1 42 -1 43
-132 3 -133 3 2 -63z"/>
<path d="M6550 3269 c-11 -8 0 -9 43 -5 46 5 57 3 57 -8 0 -22 -10 -24 -66
-17 -35 5 -51 4 -48 -3 2 -6 31 -12 65 -13 60 -3 60 -2 57 25 -3 24 -7 27 -48
30 -25 1 -52 -3 -60 -9z"/>
<path d="M6481 3193 c-1 -22 -5 -22 -118 -26 l-118 -3 118 -2 c96 -2 119 1
123 13 3 8 4 20 1 27 -3 7 -6 3 -6 -9z"/>
<path d="M6702 3170 c0 -14 2 -19 5 -12 2 6 2 18 0 25 -3 6 -5 1 -5 -13z"/>
<path d="M6690 3128 c0 -5 78 -7 173 -6 186 2 170 6 -41 10 -72 2 -132 0 -132
-4z"/>
<path d="M6448 3123 c12 -2 32 -2 45 0 12 2 2 4 -23 4 -25 0 -35 -2 -22 -4z"/>
<path d="M721 7323 c0 -6 -4 -20 -7 -30 -5 -14 -4 -15 5 -7 7 7 11 20 8 30 -3
11 -5 14 -6 7z"/>
<path d="M690 5213 c8 -3 18 -10 21 -16 4 -5 12 -6 19 -2 16 10 -6 25 -35 24
-14 0 -16 -2 -5 -6z"/>
<path d="M680 5190 c0 -5 5 -10 11 -10 5 0 7 5 4 10 -3 6 -8 10 -11 10 -2 0
-4 -4 -4 -10z"/>
<path d="M705 5170 c-3 -5 1 -10 10 -10 9 0 13 5 10 10 -3 6 -8 10 -10 10 -2
0 -7 -4 -10 -10z"/>
<path d="M680 5139 c0 -5 5 -7 10 -4 6 3 10 8 10 11 0 2 -4 4 -10 4 -5 0 -10
-5 -10 -11z"/>
<path d="M710 5136 c0 -2 7 -7 16 -10 8 -3 12 -2 9 4 -6 10 -25 14 -25 6z"/>
<path d="M690 5110 c0 -5 10 -10 23 -10 18 0 19 2 7 10 -19 13 -30 13 -30 0z"/>
<path d="M716 5065 c5 -11 -2 -15 -27 -16 l-34 -1 30 -7 c17 -4 33 -6 38 -4
11 6 9 43 -3 43 -5 0 -7 -7 -4 -15z"/>
<path d="M720 2946 c0 -8 5 -18 10 -21 6 -3 10 3 10 14 0 12 -4 21 -10 21 -5
0 -10 -6 -10 -14z"/>
</g>
</svg>
